<svg width="24" height="24" viewBox="0 0 24 24" fill="none" xmlns="http://www.w3.org/2000/svg">
<path d="M17.6231 15.8554L20.5562 18.5867C20.8392 18.8503 21 19.2197 21 19.6065C21 20.3761 20.3761 21 19.6065 21H5C3.89543 21 3 20.1046 3 19V15.3284C3 14.798 3.21071 14.2893 3.58579 13.9142L5.52809 11.9719C6.33131 11.1687 7.64143 11.1949 8.41191 12.0296L11.8751 15.7814C12.5275 16.4881 13.5905 16.6304 14.4058 16.1202L15.1991 15.6237C15.9664 15.1435 16.9607 15.2385 17.6231 15.8554Z" fill="#0A0A0A"/>
<path d="M18 8C18 8.53043 17.7893 9.03914 17.4142 9.41421C17.0391 9.78929 16.5304 10 16 10C15.4696 10 14.9609 9.78929 14.5858 9.41421C14.2107 9.03914 14 8.53043 14 8C14 7.46957 14.2107 6.96086 14.5858 6.58579C14.9609 6.21071 15.4696 6 16 6C16.5304 6 17.0391 6.21071 17.4142 6.58579C17.7893 6.96086 18 7.46957 18 8Z" fill="#0A0A0A"/>
<path d="M3 5.25V3H21V21H3V12V9.75" stroke="#0A0A0A" stroke-width="1.2"/>
</svg>
