<svg width="200" height="200" viewBox="0 0 200 200" fill="none" xmlns="http://www.w3.org/2000/svg">
<g clip-path="url(#clip0_603_13220)">
<path d="M146.431 42.2668L193.195 89.0312C196.002 91.838 196.002 96.389 193.195 99.1958L141.327 151.065C137.877 154.514 132.284 154.514 128.834 151.064L124.719 146.948C123.542 145.771 123.542 143.863 124.719 142.686C128.182 139.223 128.076 133.577 124.485 130.246L86.6204 95.1224C85.7112 94.279 85.6843 92.8492 86.561 91.9722L136.266 42.2668C139.073 39.46 143.624 39.4599 146.431 42.2668Z" fill="#3049C0" stroke="#3049C0" stroke-width="5.625" stroke-linejoin="round"/>
<path d="M142.58 45.1952L190.267 92.8821C191.121 93.7363 191.121 95.1214 190.267 95.9757L140.812 145.43C137.822 148.421 132.973 148.42 129.983 145.43L126.283 141.73C125.336 140.783 125.336 139.248 126.283 138.301C129.51 135.073 129.412 129.81 126.065 126.706L92.3685 95.4495C91.4801 94.625 91.4541 93.2274 92.3112 92.3704L139.486 45.1952C140.341 44.3409 141.726 44.3409 142.58 45.1952Z" fill="#EFEDEB" stroke="#EFEDEB" stroke-width="5.625" stroke-linejoin="round"/>
<path d="M15.452 114.56C13.6486 111.978 14.8535 108.388 17.8496 107.417L83.5879 86.114C84.502 85.8178 85.5029 86.1526 86.0543 86.9394L127.897 146.653C128.746 147.864 128.174 149.55 126.764 149.995L62.6116 170.23C58.575 171.503 54.179 170.008 51.7553 166.538L15.452 114.56Z" fill="#3049C0" stroke="#3049C0" stroke-width="5.625" stroke-linejoin="round"/>
<path d="M15.9605 110.945C14.3725 108.677 15.2265 106.146 17.8655 105.298L84.3268 83.9623L129.196 141.743C130.98 144.04 130.19 146.712 127.466 147.597L62.29 168.774C59.6637 169.627 56.2507 168.485 54.6668 166.223L15.9605 110.945Z" fill="#F0F0F0"/>
<path d="M18.839 115.056C15.6629 110.52 17.371 105.457 22.6489 103.763L75.3158 86.8551C80.3722 85.2319 86.9101 87.289 90.2132 91.5426L125.915 137.518C129.483 142.112 127.903 147.455 122.454 149.225L67.0453 167.229C61.7927 168.935 54.9667 166.652 51.799 162.127L18.839 115.056Z" fill="#EFEDEB"/>
<path d="M183.7 89.3155L136.013 41.6283C134.06 39.6757 130.895 39.6757 128.942 41.6283L81.7668 88.8036C79.782 90.7883 79.8427 94.0246 81.9006 95.9334L117.599 129.047C118.683 130.052 118.715 131.757 117.669 132.802C116.644 133.827 116.652 135.491 117.685 136.506L130.874 149.468L134.391 145.695L141.94 138.146L157.039 123.048L183.7 96.3866C185.653 94.4339 185.653 91.2681 183.7 89.3155Z" fill="url(#paint0_linear_603_13220)"/>
<path d="M17.8132 104.285C16.1784 101.951 17.1367 99.3531 19.9186 98.5789L83.8903 80.7744L128.629 138.387C130.461 140.746 129.572 143.483 126.71 144.297L63.9424 162.154C61.3302 162.898 58.0476 161.746 56.5074 159.546L17.8132 104.285Z" fill="url(#paint1_linear_603_13220)"/>
<path d="M72.4931 129.097C92.6295 123.605 121.488 131.907 132.311 146.595C123.129 128.317 82.2416 83.5229 82.2416 83.5229C69.045 72.2669 36.0342 64.2638 19.4062 67.5436L72.4931 129.097Z" stroke="#9B9A97" stroke-width="5" stroke-linecap="round" stroke-linejoin="round" stroke-dasharray="15 17.5"/>
</g>
<defs>
<linearGradient id="paint0_linear_603_13220" x1="136.428" y1="42.0436" x2="130.022" y2="145.846" gradientUnits="userSpaceOnUse">
<stop stop-color="white"/>
<stop offset="1" stop-color="#F5F5F5"/>
</linearGradient>
<linearGradient id="paint1_linear_603_13220" x1="77.0581" y1="79.7752" x2="47.9526" y2="154.497" gradientUnits="userSpaceOnUse">
<stop stop-color="white"/>
<stop offset="1" stop-color="#F5F5F5"/>
</linearGradient>
<clipPath id="clip0_603_13220">
<rect width="200" height="200" fill="white"/>
</clipPath>
</defs>
</svg>
