<svg width="160" height="160" viewBox="0 0 160 160" fill="none" xmlns="http://www.w3.org/2000/svg">
<path d="M89.3135 128.435C89.3135 129.339 90.0467 130.072 90.9512 130.072H142.412C143.317 130.072 144.05 130.805 144.05 131.71V138.608C144.05 139.513 143.317 140.246 142.412 140.246H83.6328C82.7283 140.246 81.9951 139.513 81.9951 138.608V89.8858C81.9951 88.9813 81.2619 88.248 80.3574 88.248H71.0303C70.1258 88.248 69.3926 87.5148 69.3926 86.6103V79.7119C69.3926 78.8074 70.1258 78.0742 71.0303 78.0742H87.6758C88.5803 78.0742 89.3135 78.8074 89.3135 79.7119V128.435Z" fill="url(#paint0_linear_603_13213)"/>
<circle cx="89.8913" cy="150.319" r="7.89617" fill="#222D37"/>
<circle cx="136.154" cy="150.319" r="7.89617" fill="#222D37"/>
<rect x="99.377" y="115.787" width="36.7769" height="10.3834" fill="white"/>
<path d="M136.154 113.72H104.982C101.365 113.72 98.4316 116.653 98.4316 120.271V121.688C98.4316 125.306 101.365 128.239 104.982 128.239H136.154" stroke="#3049C0" stroke-width="4.29849" stroke-linecap="round"/>
<rect x="92.2998" y="96.9727" width="36.7769" height="10.3834" fill="white"/>
<path d="M129.077 94.9053H97.9053C94.2874 94.9053 91.3545 97.8382 91.3545 101.456V102.873C91.3545 106.491 94.2874 109.424 97.9053 109.424H129.077" stroke="#FFB405" stroke-width="4.29849" stroke-linecap="round"/>
<rect x="97.7676" y="78.1582" width="36.7769" height="10.3834" fill="white"/>
<path d="M134.545 76.0908H103.373C99.7552 76.0908 96.8223 79.0237 96.8223 82.6416V84.0589C96.8223 87.6769 99.7552 90.6098 103.373 90.6098H134.545" stroke="#008C1E" stroke-width="4.29849" stroke-linecap="round"/>
<rect x="90.6904" y="59.3438" width="36.7769" height="10.3834" fill="white"/>
<path d="M127.467 57.2764H96.2959C92.678 57.2764 89.7451 60.2093 89.7451 63.8272V65.2445C89.7451 68.8624 92.678 71.7953 96.2959 71.7953H127.467" stroke="#FF5BB4" stroke-width="4.29849" stroke-linecap="round"/>
<circle cx="71.129" cy="81.5343" r="7.32138" fill="url(#paint1_linear_603_13213)"/>
<path d="M60.186 29.0766C62.3392 27.6802 65.2039 28.172 66.768 30.2067C68.1507 32.0054 68.1251 34.5162 66.706 36.2864L58.7471 46.2148C56.0884 49.5314 51.1066 49.7188 48.2062 46.6114C45.2453 43.439 45.8691 38.3617 49.5099 36.0005L60.186 29.0766Z" fill="url(#paint2_linear_603_13213)"/>
<circle cx="73.4352" cy="21.631" r="16.7013" transform="rotate(21.3231 73.4352 21.631)" fill="url(#paint3_linear_603_13213)"/>
<path d="M81.2881 36.9297L81.2188 36.8799C81.3207 36.861 81.4218 36.8389 81.5225 36.8164C81.4445 36.8545 81.3666 36.8926 81.2881 36.9297ZM55.8115 13.1543C59.5776 3.5063 70.4516 -1.26201 80.0996 2.50391C89.7477 6.27002 94.5161 17.1449 90.75 26.793C89.8699 29.0475 88.6009 31.035 87.0508 32.71C87.7443 31.4822 88.1416 30.0648 88.1416 28.5537C88.1413 23.8759 84.3488 20.0832 79.6709 20.083C78.2815 20.083 76.9705 20.4198 75.8135 21.0127C74.712 19.127 73.0074 17.9151 71.0918 17.915C67.77 17.9152 65.0763 21.5554 65.0762 26.0449C65.0763 28.8095 66.0998 31.2502 67.6602 32.7188L64.8086 36.7041C56.2818 32.399 52.2673 22.2341 55.8115 13.1543Z" fill="black"/>
<path d="M46.874 72.4941L55.9346 140.639C63.5867 142.015 69.3926 148.708 69.3926 156.757V158.215H25.209V140.38H25.2148V72.4814L46.874 72.4941Z" fill="url(#paint4_linear_603_13213)"/>
<path d="M41.9229 38.6514C45.1651 34.4885 50.5989 32.6934 55.6826 34.1064C61.1587 35.6286 64.7601 40.38 65.1797 45.6279L77.0918 73.3086C78.8556 77.4072 76.461 82.1005 72.1074 83.0781L69.3418 83.6992C65.2605 84.6157 61.2713 81.8356 60.7178 77.6895L58.8975 64.0576L56.0361 70.7295L57.6143 89.8564C58.128 96.0847 53.2113 101.424 46.9619 101.424H26.6426C19.8307 101.424 14.757 95.1368 16.1953 88.4785L17.7803 81.1416C20.0413 70.6747 24.6321 60.8517 31.2119 52.4033L41.9229 38.6514Z" fill="url(#paint5_linear_603_13213)"/>
<ellipse cx="81.9911" cy="31.2871" rx="1.04132" ry="1.92304" transform="rotate(43.7407 81.9911 31.2871)" fill="black"/>
<defs>
<linearGradient id="paint0_linear_603_13213" x1="106.721" y1="78.0742" x2="106.721" y2="140.246" gradientUnits="userSpaceOnUse">
<stop stop-color="#3A4A59"/>
<stop offset="1" stop-color="#222D37"/>
</linearGradient>
<linearGradient id="paint1_linear_603_13213" x1="71.129" y1="79.082" x2="71.129" y2="88.8556" gradientUnits="userSpaceOnUse">
<stop stop-color="#FBA892"/>
<stop offset="1" stop-color="#FFE1DF"/>
</linearGradient>
<linearGradient id="paint2_linear_603_13213" x1="64.2244" y1="28.7263" x2="55.0077" y2="38.2424" gradientUnits="userSpaceOnUse">
<stop stop-color="#F98765"/>
<stop offset="1" stop-color="#FFE1DF"/>
</linearGradient>
<linearGradient id="paint3_linear_603_13213" x1="89.6831" y1="22.9658" x2="71.3085" y2="37.2526" gradientUnits="userSpaceOnUse">
<stop stop-color="#FCB09D"/>
<stop offset="1" stop-color="#FFE1DF"/>
</linearGradient>
<linearGradient id="paint4_linear_603_13213" x1="46.6253" y1="72.4814" x2="46.6253" y2="158.215" gradientUnits="userSpaceOnUse">
<stop stop-color="#5E646B"/>
<stop offset="1" stop-color="#070707"/>
</linearGradient>
<linearGradient id="paint5_linear_603_13213" x1="60.5162" y1="39.0049" x2="43.6375" y2="100.506" gradientUnits="userSpaceOnUse">
<stop stop-color="#546BDD"/>
<stop offset="1" stop-color="#3049C0"/>
</linearGradient>
</defs>
</svg>
