<svg width="256" height="256" viewBox="0 0 256 256" fill="none" xmlns="http://www.w3.org/2000/svg">
<rect width="256" height="256" rx="70" fill="white"/>
<path d="M39.2109 118.5V155.807C39.2109 161.016 41.9134 165.852 46.3499 168.582L93.3213 197.486C111.167 208.467 133.648 208.574 151.597 197.763L170.909 186.132L195.177 171.516" stroke="#788ADE" stroke-width="22.5" stroke-linecap="round"/>
<path d="M150.083 115.709C167.741 126.034 167.671 142.668 149.874 152.944C132.007 163.259 103.038 163.259 85.1712 152.944L33.4089 123.059C26.262 118.932 26.262 112.242 33.4089 108.116L136.933 48.3462C144.08 44.22 155.668 44.22 162.815 48.3462L214.577 78.2312C232.444 88.5468 232.444 105.272 214.577 115.587C196.71 125.903 167.741 125.903 149.874 115.587L150.083 115.709Z" fill="#3049C0"/>
<path d="M220.524 162.013L186 142.081L206.924 130L241.448 149.933L215.067 146.782L220.524 162.013Z" fill="#3049C0"/>
</svg>
