<svg width="114" height="30" viewBox="0 0 114 30" fill="none" xmlns="http://www.w3.org/2000/svg">
<path d="M103.847 24.1918C102.615 24.1918 101.527 23.9278 100.583 23.3998C99.6394 22.8718 98.9034 22.1278 98.3754 21.1678C97.8634 20.1918 97.6074 19.0718 97.6074 17.8078V13.3918C97.6074 12.1278 97.8634 11.0158 98.3754 10.0558C98.9034 9.07981 99.6394 8.32781 100.583 7.79981C101.543 7.27181 102.647 7.00781 103.895 7.00781H106.583C107.783 7.00781 108.839 7.24781 109.751 7.72781C110.663 8.20781 111.367 8.88781 111.863 9.76781C112.375 10.6478 112.631 11.6638 112.631 12.8158H109.367C109.367 11.9518 109.111 11.2558 108.599 10.7278C108.087 10.1998 107.415 9.93581 106.583 9.93581H103.895C102.999 9.93581 102.279 10.2718 101.735 10.9438C101.191 11.5998 100.919 12.4638 100.919 13.5358V17.6638C100.919 18.7358 101.183 19.6078 101.711 20.2798C102.255 20.9358 102.967 21.2638 103.847 21.2638H106.679C107.495 21.2638 108.167 20.9678 108.695 20.3758C109.239 19.7838 109.511 19.0478 109.511 18.1678V17.6398H104.855V14.7598H112.775V18.1678C112.775 19.3358 112.519 20.3758 112.007 21.2878C111.495 22.1998 110.775 22.9118 109.847 23.4238C108.919 23.9358 107.863 24.1918 106.679 24.1918H103.847Z" fill="#0A0A0A"/>
<path d="M86.8885 24.1918C85.6245 24.1918 84.5045 23.9278 83.5285 23.3998C82.5685 22.8558 81.8165 22.1038 81.2725 21.1438C80.7445 20.1678 80.4805 19.0398 80.4805 17.7598V13.4398C80.4805 12.1598 80.7445 11.0398 81.2725 10.0798C81.8165 9.10381 82.5685 8.35181 83.5285 7.82381C84.5045 7.27981 85.6245 7.00781 86.8885 7.00781H89.4325C90.6965 7.00781 91.8085 7.27981 92.7685 7.82381C93.7445 8.35181 94.4965 9.10381 95.0245 10.0798C95.5685 11.0398 95.8405 12.1598 95.8405 13.4398V17.7598C95.8405 19.0398 95.5685 20.1678 95.0245 21.1438C94.4965 22.1038 93.7445 22.8558 92.7685 23.3998C91.8085 23.9278 90.6965 24.1918 89.4325 24.1918H86.8885ZM89.4325 21.2638C90.3605 21.2638 91.1045 20.9278 91.6645 20.2558C92.2405 19.5838 92.5285 18.7038 92.5285 17.6158V13.5838C92.5285 12.4958 92.2405 11.6158 91.6645 10.9438C91.1045 10.2718 90.3605 9.93581 89.4325 9.93581H86.8885C85.9605 9.93581 85.2085 10.2718 84.6325 10.9438C84.0725 11.6158 83.7925 12.4958 83.7925 13.5838V17.6158C83.7925 18.7038 84.0725 19.5838 84.6325 20.2558C85.2085 20.9278 85.9605 21.2638 86.8885 21.2638H89.4325Z" fill="#0A0A0A"/>
<path d="M70.0507 24.0002C69.3467 24.0002 68.7787 23.8002 68.3467 23.4002C67.9307 22.9842 67.7227 22.4402 67.7227 21.7682V7.2002H71.0347V21.1202H80.1547V24.0002H70.0507Z" fill="#0A0A0A"/>
<path d="M62.5382 24.0002L56.9942 16.9442L55.3862 18.6722V24.0002H52.0742V7.2002H55.3862V14.4482L62.0582 7.2002H66.1382L59.2262 14.5682L66.5702 24.0002H62.5382Z" fill="#0A0A0A"/>
<path d="M40.8728 24.1918C39.6088 24.1918 38.4888 23.9278 37.5128 23.3998C36.5528 22.8558 35.8008 22.1038 35.2568 21.1438C34.7288 20.1678 34.4648 19.0398 34.4648 17.7598V13.4398C34.4648 12.1598 34.7288 11.0398 35.2568 10.0798C35.8008 9.10381 36.5528 8.35181 37.5128 7.82381C38.4888 7.27981 39.6088 7.00781 40.8728 7.00781H43.4168C44.6808 7.00781 45.7928 7.27981 46.7528 7.82381C47.7288 8.35181 48.4808 9.10381 49.0088 10.0798C49.5528 11.0398 49.8248 12.1598 49.8248 13.4398V17.7598C49.8248 19.0398 49.5528 20.1678 49.0088 21.1438C48.4808 22.1038 47.7288 22.8558 46.7528 23.3998C45.7928 23.9278 44.6808 24.1918 43.4168 24.1918H40.8728ZM43.4168 21.2638C44.3448 21.2638 45.0888 20.9278 45.6488 20.2558C46.2248 19.5838 46.5128 18.7038 46.5128 17.6158V13.5838C46.5128 12.4958 46.2248 11.6158 45.6488 10.9438C45.0888 10.2718 44.3448 9.93581 43.4168 9.93581H40.8728C39.9448 9.93581 39.1928 10.2718 38.6168 10.9438C38.0568 11.6158 37.7768 12.4958 37.7768 13.5838V17.6158C37.7768 18.7038 38.0568 19.5838 38.6168 20.2558C39.1928 20.9278 39.9448 21.2638 40.8728 21.2638H43.4168Z" fill="#0A0A0A"/>
<path d="M23.7478 24.1918C22.4838 24.1918 21.3638 23.9278 20.3878 23.3998C19.4278 22.8558 18.6758 22.1038 18.1318 21.1438C17.6038 20.1678 17.3398 19.0398 17.3398 17.7598V13.4398C17.3398 12.1598 17.6038 11.0398 18.1318 10.0798C18.6758 9.10381 19.4278 8.35181 20.3878 7.82381C21.3638 7.27981 22.4838 7.00781 23.7478 7.00781H26.2918C27.5558 7.00781 28.6678 7.27981 29.6278 7.82381C30.6038 8.35181 31.3558 9.10381 31.8838 10.0798C32.4278 11.0398 32.6998 12.1598 32.6998 13.4398V17.7598C32.6998 19.0398 32.4278 20.1678 31.8838 21.1438C31.3558 22.1038 30.6038 22.8558 29.6278 23.3998C28.6678 23.9278 27.5558 24.1918 26.2918 24.1918H23.7478ZM26.2918 21.2638C27.2198 21.2638 27.9638 20.9278 28.5238 20.2558C29.0998 19.5838 29.3878 18.7038 29.3878 17.6158V13.5838C29.3878 12.4958 29.0998 11.6158 28.5238 10.9438C27.9638 10.2718 27.2198 9.93581 26.2918 9.93581H23.7478C22.8198 9.93581 22.0678 10.2718 21.4918 10.9438C20.9318 11.6158 20.6518 12.4958 20.6518 13.5838V17.6158C20.6518 18.7038 20.9318 19.5838 21.4918 20.2558C22.0678 20.9278 22.8198 21.2638 23.7478 21.2638H26.2918Z" fill="#0A0A0A"/>
<path d="M3.81628 24.0002C3.12828 24.0002 2.56828 23.7922 2.13628 23.3762C1.70428 22.9602 1.48828 22.4162 1.48828 21.7442V7.2002H9.84028C11.3603 7.2002 12.5763 7.56019 13.4883 8.2802C14.4163 9.0002 14.8803 9.9682 14.8803 11.1842V12.3842C14.8803 12.9122 14.7443 13.4162 14.4723 13.8962C14.2163 14.3762 13.8483 14.7682 13.3683 15.0722V15.0962C14.1363 15.3682 14.7523 15.8082 15.2163 16.4162C15.6963 17.0242 15.9363 17.7042 15.9363 18.4562V19.7042C15.9363 21.0162 15.4563 22.0642 14.4963 22.8482C13.5523 23.6162 12.2723 24.0002 10.6563 24.0002H3.81628ZM9.84028 14.1602C10.3523 14.1602 10.7683 14.0002 11.0883 13.6802C11.4083 13.3442 11.5683 12.9042 11.5683 12.3602V11.5442C11.5683 11.0962 11.4003 10.7442 11.0643 10.4882C10.7283 10.2162 10.2803 10.0802 9.72028 10.0802H4.80028V14.1602H9.84028ZM10.4163 21.1202C11.1203 21.1202 11.6643 20.9842 12.0483 20.7122C12.4323 20.4242 12.6243 20.0242 12.6243 19.5122V18.4562C12.6243 17.9922 12.4563 17.6162 12.1203 17.3282C11.7843 17.0402 11.3363 16.8962 10.7763 16.8962H4.80028V21.1202H10.4163Z" fill="#0A0A0A"/>
</svg>
