<svg width="74" height="28" viewBox="0 0 74 28" fill="none" xmlns="http://www.w3.org/2000/svg">
<path d="M14.0398 5.3041C13.9278 6.1201 13.6958 6.8401 13.3438 7.4641C13.0078 8.0881 12.4638 8.6161 11.7118 9.0481C10.9598 9.4641 9.91183 9.7841 8.56783 10.0081C7.23983 10.2161 5.52783 10.3201 3.43183 10.3201L3.74383 8.4001C5.47183 8.4001 6.84783 8.3201 7.87183 8.1601C8.89583 7.9841 9.65583 7.7441 10.1518 7.4401C10.6638 7.1361 11.0078 6.7921 11.1838 6.4081C11.3758 6.0241 11.5038 5.6161 11.5678 5.1841C11.6158 4.7041 11.5198 4.2801 11.2798 3.9121C11.0558 3.5441 10.6478 3.2401 10.0558 3.0001C9.47983 2.7601 8.67983 2.5841 7.65583 2.4721C6.63183 2.3601 5.36783 2.3041 3.86383 2.3041L4.17583 0.0720973C7.67983 0.0720973 10.2558 0.480097 11.9038 1.2961C13.5678 2.1121 14.2798 3.4481 14.0398 5.3041ZM12.5758 14.2081C12.4638 15.0561 12.1838 15.7681 11.7358 16.3441C11.3038 16.9201 10.6478 17.3761 9.76783 17.7121C8.90383 18.0321 7.75983 18.2641 6.33583 18.4081C4.92783 18.5361 3.19183 18.6001 1.12783 18.6001L1.63183 16.3681C3.61583 16.3681 5.21583 16.2881 6.43183 16.1281C7.64783 15.9681 8.55183 15.7041 9.14383 15.3361C9.73583 14.9521 10.0718 14.4401 10.1518 13.8001C10.2478 13.0961 10.0798 12.4881 9.64783 11.9761C9.21583 11.4641 8.47983 11.0721 7.43983 10.8001C6.39983 10.5121 5.01583 10.3681 3.28783 10.3681L3.59983 8.4001C4.97583 8.4001 6.23983 8.5281 7.39183 8.7841C8.54383 9.0241 9.53583 9.3841 10.3678 9.8641C11.1998 10.3441 11.8078 10.9521 12.1918 11.6881C12.5918 12.4081 12.7198 13.2481 12.5758 14.2081ZM0.0718281 17.2561L2.90383 1.1281C2.98383 0.712097 3.13583 0.432097 3.35983 0.288097C3.58383 0.144097 3.85583 0.0720973 4.17583 0.0720973L5.37583 1.3681L2.54383 17.4721L1.15183 18.6001C0.815828 18.6001 0.535828 18.4721 0.311828 18.2161C0.103828 17.9601 0.0238281 17.6401 0.0718281 17.2561ZM17.5343 18.7441C17.0863 18.7441 16.6543 18.6401 16.2383 18.4321C15.8223 18.2081 15.4863 17.8721 15.2303 17.4241C14.9903 16.9601 14.8703 16.3521 14.8703 15.6001C14.8703 14.6881 15.0063 13.8081 15.2783 12.9601C15.5503 12.1121 15.9263 11.3601 16.4063 10.7041C16.8863 10.0321 17.4463 9.5041 18.0863 9.1201C18.7263 8.7201 19.4143 8.5201 20.1503 8.5201C20.8543 8.5201 21.4943 8.6401 22.0703 8.8801C22.6623 9.1201 23.1183 9.4641 23.4383 9.9121C23.7583 10.3601 23.8783 10.8801 23.7983 11.4721C23.7183 12.0481 23.5503 12.6641 23.2943 13.3201C23.0543 13.9601 22.7343 14.6001 22.3343 15.2401C21.9343 15.8801 21.4783 16.4641 20.9663 16.9921C20.4703 17.5201 19.9343 17.9441 19.3583 18.2641C18.7823 18.5841 18.1743 18.7441 17.5343 18.7441ZM17.8463 16.5121C18.1503 16.5121 18.4943 16.3521 18.8783 16.0321C19.2783 15.6961 19.6623 15.2881 20.0303 14.8081C20.3983 14.3121 20.7103 13.7921 20.9663 13.2481C21.2223 12.7041 21.3743 12.2241 21.4223 11.8081C21.4543 11.4881 21.3423 11.2401 21.0863 11.0641C20.8303 10.8721 20.5183 10.7761 20.1503 10.7761C19.8143 10.7761 19.4703 10.9281 19.1183 11.2321C18.7663 11.5361 18.4463 11.9281 18.1583 12.4081C17.8703 12.8881 17.6383 13.3921 17.4623 13.9201C17.2863 14.4481 17.1983 14.9441 17.1983 15.4081C17.1983 15.7761 17.2623 16.0561 17.3903 16.2481C17.5343 16.4241 17.6863 16.5121 17.8463 16.5121ZM27.7296 18.7441C27.2816 18.7441 26.8496 18.6401 26.4336 18.4321C26.0176 18.2081 25.6816 17.8721 25.4256 17.4241C25.1856 16.9601 25.0656 16.3521 25.0656 15.6001C25.0656 14.6881 25.2016 13.8081 25.4736 12.9601C25.7456 12.1121 26.1216 11.3601 26.6016 10.7041C27.0816 10.0321 27.6416 9.5041 28.2816 9.1201C28.9216 8.7201 29.6096 8.5201 30.3456 8.5201C31.0496 8.5201 31.6896 8.6401 32.2656 8.8801C32.8576 9.1201 33.3136 9.4641 33.6336 9.9121C33.9536 10.3601 34.0736 10.8801 33.9936 11.4721C33.9136 12.0481 33.7456 12.6641 33.4896 13.3201C33.2496 13.9601 32.9296 14.6001 32.5296 15.2401C32.1296 15.8801 31.6736 16.4641 31.1616 16.9921C30.6656 17.5201 30.1296 17.9441 29.5536 18.2641C28.9776 18.5841 28.3696 18.7441 27.7296 18.7441ZM28.0416 16.5121C28.3456 16.5121 28.6896 16.3521 29.0736 16.0321C29.4736 15.6961 29.8576 15.2881 30.2256 14.8081C30.5936 14.3121 30.9056 13.7921 31.1616 13.2481C31.4176 12.7041 31.5696 12.2241 31.6176 11.8081C31.6496 11.4881 31.5376 11.2401 31.2816 11.0641C31.0256 10.8721 30.7136 10.7761 30.3456 10.7761C30.0096 10.7761 29.6656 10.9281 29.3136 11.2321C28.9616 11.5361 28.6416 11.9281 28.3536 12.4081C28.0656 12.8881 27.8336 13.3921 27.6576 13.9201C27.4816 14.4481 27.3936 14.9441 27.3936 15.4081C27.3936 15.7761 27.4576 16.0561 27.5856 16.2481C27.7296 16.4241 27.8816 16.5121 28.0416 16.5121ZM36.4129 18.6001C36.0929 18.6001 35.8209 18.4881 35.5969 18.2641C35.3889 18.0401 35.3169 17.7521 35.3809 17.4001L38.2129 1.1521C38.2769 0.784096 38.4289 0.504097 38.6689 0.312097C38.9249 0.104097 39.1969 9.67979e-05 39.4849 9.67979e-05C39.8689 9.67979e-05 40.1649 0.120097 40.3729 0.360096C40.5969 0.584096 40.6689 0.912097 40.5889 1.3441L37.7569 17.5681C37.6929 17.9361 37.5409 18.2001 37.3009 18.3601C37.0609 18.5201 36.7649 18.6001 36.4129 18.6001ZM43.7809 18.6001C43.5569 18.6001 43.3329 18.5361 43.1089 18.4081C42.9009 18.2641 42.7249 18.0961 42.5809 17.9041L40.0849 14.3041C39.9409 14.0961 39.9089 13.8881 39.9889 13.6801C40.0689 13.4721 40.2209 13.3041 40.4449 13.1761C41.0369 12.8401 41.5169 12.5281 41.8849 12.2401C42.2689 11.9361 42.5489 11.6721 42.7249 11.4481C42.9169 11.2081 43.0129 11.0081 43.0129 10.8481C43.0129 10.7361 42.9729 10.6401 42.8929 10.5601C42.8129 10.4801 42.7009 10.4401 42.5569 10.4401C42.3169 10.4401 41.9809 10.5841 41.5489 10.8721C41.1329 11.1601 40.6609 11.5681 40.1329 12.0961C39.6049 12.6081 39.0689 13.2161 38.5249 13.9201C37.9809 14.6241 37.4769 15.3841 37.0129 16.2001L37.3489 12.8161C37.9089 12.0641 38.5089 11.3601 39.1489 10.7041C39.7889 10.0321 40.4369 9.4961 41.0929 9.0961C41.7649 8.6961 42.4049 8.4961 43.0129 8.4961C43.5089 8.4961 43.9249 8.6001 44.2609 8.8081C44.5969 9.0001 44.8449 9.2561 45.0049 9.5761C45.1809 9.8801 45.2689 10.1841 45.2689 10.4881C45.2689 11.1441 45.0289 11.7441 44.5489 12.2881C44.0849 12.8321 43.4609 13.3761 42.6769 13.9201L44.6929 16.8001C44.8209 16.9921 44.9009 17.1681 44.9329 17.3281C44.9649 17.4881 44.9489 17.6401 44.8849 17.7841C44.8369 18.0401 44.7009 18.2401 44.4769 18.3841C44.2689 18.5281 44.0369 18.6001 43.7809 18.6001ZM48.7511 18.6001C48.4471 18.6001 48.1591 18.5041 47.8871 18.3121C47.6151 18.1041 47.5191 17.7841 47.5991 17.3521L50.4791 1.0321C50.5431 0.680097 50.6951 0.432097 50.9351 0.288097C51.1751 0.144097 51.4311 0.0720973 51.7031 0.0720973C52.0391 0.0720973 52.3431 0.184097 52.6151 0.408097C52.8871 0.616096 52.9831 0.920096 52.9031 1.3201L50.0711 17.5201C50.0071 17.8721 49.8391 18.1441 49.5671 18.3361C49.3111 18.5121 49.0391 18.6001 48.7511 18.6001ZM55.7374 18.7441C55.2894 18.7441 54.8574 18.6401 54.4414 18.4321C54.0254 18.2081 53.6894 17.8721 53.4334 17.4241C53.1934 16.9601 53.0734 16.3521 53.0734 15.6001C53.0734 14.6881 53.2094 13.8081 53.4814 12.9601C53.7534 12.1121 54.1294 11.3601 54.6094 10.7041C55.0894 10.0321 55.6494 9.5041 56.2894 9.1201C56.9294 8.7201 57.6174 8.5201 58.3534 8.5201C59.0574 8.5201 59.6974 8.6401 60.2734 8.8801C60.8654 9.1201 61.3214 9.4641 61.6414 9.9121C61.9614 10.3601 62.0814 10.8801 62.0014 11.4721C61.9214 12.0481 61.7534 12.6641 61.4974 13.3201C61.2574 13.9601 60.9374 14.6001 60.5374 15.2401C60.1374 15.8801 59.6814 16.4641 59.1694 16.9921C58.6734 17.5201 58.1374 17.9441 57.5614 18.2641C56.9854 18.5841 56.3774 18.7441 55.7374 18.7441ZM56.0494 16.5121C56.3534 16.5121 56.6974 16.3521 57.0814 16.0321C57.4814 15.6961 57.8654 15.2881 58.2334 14.8081C58.6014 14.3121 58.9134 13.7921 59.1694 13.2481C59.4254 12.7041 59.5774 12.2241 59.6254 11.8081C59.6574 11.4881 59.5454 11.2401 59.2894 11.0641C59.0334 10.8721 58.7214 10.7761 58.3534 10.7761C58.0174 10.7761 57.6734 10.9281 57.3214 11.2321C56.9694 11.5361 56.6494 11.9281 56.3614 12.4081C56.0734 12.8881 55.8414 13.3921 55.6654 13.9201C55.4894 14.4481 55.4014 14.9441 55.4014 15.4081C55.4014 15.7761 55.4654 16.0561 55.5934 16.2481C55.7374 16.4241 55.8894 16.5121 56.0494 16.5121ZM61.4687 26.0161C61.4687 25.6961 61.6127 25.4321 61.9007 25.2241C62.1887 25.0161 62.5327 24.9121 62.9327 24.9121C63.0287 24.9121 63.2287 24.9041 63.5327 24.8881C63.8367 24.8721 64.1727 24.8481 64.5407 24.8161C64.9247 24.8001 65.2847 24.7761 65.6207 24.7441C65.9727 24.7121 66.2287 24.6881 66.3887 24.6721C66.9327 24.6081 67.3567 24.4721 67.6607 24.2641C67.9807 24.0561 68.2527 23.7601 68.4767 23.3761C68.8287 22.7841 69.0927 22.0481 69.2687 21.1681C69.4607 20.3041 69.6367 19.4081 69.7967 18.4801L70.7807 13.0801L71.5727 8.6161H72.5087C72.9247 8.6161 73.2287 8.7441 73.4207 9.0001C73.6287 9.2401 73.6847 9.6081 73.5887 10.1041L72.0767 18.6241C71.8687 19.7761 71.6767 20.8641 71.5007 21.8881C71.3247 22.9121 70.9967 23.8161 70.5167 24.6001C70.1487 25.2081 69.6607 25.7041 69.0527 26.0881C68.4447 26.4721 67.7327 26.7281 66.9167 26.8561C66.6767 26.8881 66.3647 26.9201 65.9807 26.9521C65.6127 26.9841 65.2207 27.0161 64.8047 27.0481C64.4047 27.0801 64.0447 27.1041 63.7247 27.1201C63.4047 27.1361 63.1807 27.1441 63.0527 27.1441C62.5407 27.1441 62.1487 27.0321 61.8767 26.8081C61.6047 26.5841 61.4687 26.3201 61.4687 26.0161ZM63.2207 16.2721C63.2207 15.6641 63.2847 15.0161 63.4127 14.3281C63.5567 13.6241 63.7487 12.9521 63.9887 12.3121C64.2287 11.6721 64.4927 11.1281 64.7807 10.6801C65.1487 10.1361 65.5967 9.7201 66.1247 9.4321C66.6527 9.1281 67.2047 8.9201 67.7807 8.8081C68.3567 8.6801 68.9087 8.6161 69.4367 8.6161H72.3647V10.8241H69.4367C68.9247 10.8241 68.4207 10.8881 67.9247 11.0161C67.4287 11.1281 67.0127 11.4481 66.6767 11.9761C66.4527 12.2801 66.2527 12.6961 66.0767 13.2241C65.9167 13.7361 65.7887 14.2401 65.6927 14.7361C65.5967 15.2161 65.5487 15.5521 65.5487 15.7441C65.5487 15.9201 65.5647 16.0881 65.5967 16.2481C65.6447 16.4081 65.7087 16.4881 65.7887 16.4881C65.9007 16.4881 66.1087 16.3921 66.4127 16.2001C66.7327 15.9921 67.0927 15.7041 67.4927 15.3361C67.8927 14.9521 68.3007 14.4961 68.7167 13.9681C69.2127 13.3441 69.7087 12.6721 70.2047 11.9521C70.7167 11.2161 71.1727 10.5201 71.5727 9.8641H73.1327C72.5727 10.9521 71.9967 12.0081 71.4047 13.0321C70.8127 14.0401 70.1647 14.9681 69.4607 15.8161C69.1407 16.2321 68.7567 16.6721 68.3087 17.1361C67.8767 17.5841 67.3967 17.9601 66.8687 18.2641C66.3407 18.5681 65.7567 18.7201 65.1167 18.7201C64.5887 18.7201 64.1407 18.5281 63.7727 18.1441C63.4047 17.7441 63.2207 17.1201 63.2207 16.2721Z" fill="#0A0A0A"/>
</svg>
