<svg width="24" height="24" viewBox="0 0 24 24" fill="none" xmlns="http://www.w3.org/2000/svg">
<path d="M6.92958 4C9.32394 4 11.2691 4.66667 12 5C12.892 4.66667 15.0986 4 16.9296 4C19.3239 4 21.2691 4.66667 22 5V20C21.2691 19.6667 19.3239 19 16.9296 19C15.0986 19 12.892 19.6667 12 20C11.2691 19.6667 9.32394 19 6.92958 19C5.09859 19 2.89202 19.6667 2 20V5C2.89202 4.66667 5.09859 4 6.92958 4Z" stroke="currentColor" stroke-width="1.2"/>
<path d="M12 11L12 20" stroke="currentColor" stroke-width="1.2" stroke-linejoin="bevel"/>
<path d="M12 5V8" stroke="currentColor" stroke-width="1.2" stroke-linejoin="bevel"/>
</svg>
