<svg width="24" height="24" viewBox="0 0 24 24" fill="none" xmlns="http://www.w3.org/2000/svg">
<circle cx="12.0001" cy="12.0021" r="3.15598" stroke="currentColor" stroke-width="1.2"/>
<path d="M10.1807 2.59961H13.8174C13.9646 2.59967 14.0912 2.70422 14.1201 2.84863L14.4707 4.60059C14.5678 5.08566 14.8922 5.46777 15.2959 5.67871C15.4757 5.77264 15.6512 5.87448 15.8223 5.9834C16.2071 6.22843 16.7015 6.31893 17.1709 6.16016L18.8633 5.58691C19.0028 5.53971 19.1568 5.598 19.2305 5.72559L21.0488 8.875C21.1222 9.00255 21.095 9.16456 20.9844 9.26172L19.6416 10.4424C19.2702 10.7688 19.1008 11.24 19.1201 11.6953C19.1287 11.8986 19.1287 12.1024 19.1201 12.3057C19.1009 12.761 19.27 13.2322 19.6416 13.5586L20.9854 14.7393C21.0961 14.8365 21.1225 14.9983 21.0488 15.126L19.2314 18.2754C19.1577 18.4029 19.0038 18.4603 18.8643 18.4131L17.1699 17.8398C16.7003 17.681 16.2062 17.7713 15.8213 18.0166C15.6501 18.1257 15.4739 18.2272 15.2939 18.3213C14.8906 18.5323 14.5677 18.9147 14.4707 19.3994L14.1201 21.1523C14.0911 21.2965 13.9645 21.4002 13.8174 21.4004H10.1807C10.0334 21.4004 9.90595 21.2967 9.87695 21.1523L9.52734 19.4004C9.43017 18.9146 9.10577 18.5323 8.70215 18.3213C8.52203 18.2271 8.34651 18.1254 8.17578 18.0166C7.79095 17.7714 7.29708 17.6823 6.82812 17.8408L5.13379 18.4131C4.99439 18.4601 4.84129 18.4027 4.76758 18.2754L2.94922 15.126C2.87555 14.9984 2.90205 14.8365 3.0127 14.7393L4.35645 13.5586C4.72775 13.2322 4.89718 12.7609 4.87793 12.3057C4.86932 12.1023 4.86933 11.8987 4.87793 11.6953C4.8972 11.2402 4.72761 10.7688 4.35645 10.4424L3.0127 9.26172C2.90204 9.16449 2.87563 9.00259 2.94922 8.875L4.7666 5.72559C4.84019 5.59815 4.99338 5.53999 5.13281 5.58691L6.82715 6.16016C7.29677 6.31905 7.79084 6.22964 8.17578 5.98438C8.34709 5.87519 8.52312 5.77287 8.70312 5.67871C9.1066 5.46762 9.43041 5.08557 9.52734 4.60059L9.87695 2.84863C9.90583 2.70414 10.0333 2.59961 10.1807 2.59961Z" stroke="currentColor" stroke-width="1.2"/>
</svg>
