<svg width="80" height="80" viewBox="0 0 80 80" fill="none" xmlns="http://www.w3.org/2000/svg">
<g filter="url(#filter0_i_1680_24254)">
<path d="M62.0428 67.5302L43.0039 56.5381L54.6847 49.7941L73.7237 60.7863L59.1045 59.0898L62.0428 67.5302Z" fill="url(#paint0_linear_1680_24254)"/>
</g>
<g filter="url(#filter1_i_1680_24254)">
<path d="M39.6772 13.972C44.2314 11.3427 51.6152 11.3427 56.1694 13.972L70.1585 22.0486L70.1522 22.0522L70.2265 22.0951C76.2188 25.5548 76.2188 31.164 70.2265 34.6237C64.2342 38.0833 54.5188 38.0833 48.5265 34.6237L48.5965 34.6644C54.5187 38.1272 54.4953 43.7061 48.5265 47.1522C42.5342 50.6119 32.8187 50.6119 26.8264 47.1522L14.3789 39.9657C13.3284 39.4867 12.5104 40.5733 12.6093 41.6584C12.7302 42.9845 13.2338 44.1185 14.6001 44.9074L29.8319 53.7014V61.2186L14.6001 52.4245C8.59211 48.9558 6.00003 44.6112 6 39.1266C6 35.148 8.34674 32.0607 10.5169 30.8078C22.2562 24.0301 39.6772 13.972 39.6772 13.972Z" fill="url(#paint1_linear_1680_24254)"/>
</g>
<g style="mix-blend-mode:soft-light">
<g filter="url(#filter2_i_1680_24254)">
<path d="M62.0428 67.5302L43.0039 56.5381L54.6847 49.7941L73.7237 60.7863L59.1045 59.0898L62.0428 67.5302Z" fill="url(#paint2_linear_1680_24254)"/>
</g>
<path d="M54.6843 50.1558L72.3735 60.3687L59.192 58.8394L58.5391 58.7632L58.6702 59.1406L61.3198 66.7515L43.6297 56.5381L54.6843 50.1558Z" stroke="url(#paint3_linear_1680_24254)" stroke-width="0.723376"/>
<g filter="url(#filter3_i_1680_24254)">
<path d="M39.6772 13.972C44.2314 11.3427 51.6152 11.3427 56.1694 13.972L70.1585 22.0486L70.1522 22.0522L70.2265 22.0951C76.2188 25.5548 76.2188 31.164 70.2265 34.6237C64.2342 38.0833 54.5188 38.0833 48.5265 34.6237L48.5965 34.6644C54.5187 38.1272 54.4953 43.7061 48.5265 47.1522C42.5342 50.6119 32.8187 50.6119 26.8264 47.1522L14.3789 39.9657C13.3284 39.4867 12.5104 40.5733 12.6093 41.6584C12.7302 42.9845 13.2338 44.1185 14.6001 44.9074L29.8319 53.7014V61.2186L14.6001 52.4245C8.59211 48.9558 6.00003 44.6112 6 39.1266C6 35.148 8.34674 32.0607 10.5169 30.8078C22.2562 24.0301 39.6772 13.972 39.6772 13.972Z" fill="url(#paint4_linear_1680_24254)"/>
</g>
<path d="M47.9229 12.3613C50.8606 12.3613 53.7792 13.0098 55.9883 14.2852L69.4248 22.043L69.4199 22.0469L69.9717 22.3652L70.0459 22.4082C72.9761 24.1 74.3594 26.2669 74.3594 28.3594C74.3594 30.4518 72.9761 32.6188 70.0459 34.3105C67.1178 36.0011 63.2571 36.8564 59.377 36.8564C55.4967 36.8564 51.6353 36.0012 48.707 34.3105L48.3447 34.9365L48.4141 34.9766C51.309 36.6693 52.6699 38.8291 52.6592 40.9131C52.6482 42.9975 51.2642 45.1538 48.3457 46.8389C45.4176 48.5294 41.5569 49.3857 37.6768 49.3857C33.7965 49.3857 29.9351 48.5295 27.0068 46.8389L14.5596 39.6523L14.5449 39.6436L14.5293 39.6367L14.4014 39.584C13.7679 39.3518 13.1887 39.5596 12.7979 39.9795C12.3979 40.4094 12.1912 41.0569 12.249 41.6914C12.3779 43.1051 12.9279 44.3598 14.4189 45.2207L29.4707 53.9102V60.5918L14.7812 52.1113C11.8138 50.3981 9.71259 48.4817 8.35254 46.3379C6.9945 44.1972 6.3614 41.8087 6.36133 39.127C6.36133 35.2878 8.63028 32.3147 10.6973 31.1211C16.5669 27.7323 23.857 23.5228 29.6797 20.1611C32.5908 18.4804 35.1355 17.0117 36.9521 15.9629C37.8605 15.4385 38.5876 15.0187 39.0869 14.7305C39.3363 14.5865 39.5288 14.4747 39.6592 14.3994C39.7243 14.3618 39.7743 14.3337 39.8076 14.3145C39.8243 14.3048 39.8373 14.2978 39.8457 14.293C39.8497 14.2907 39.8524 14.2883 39.8545 14.2871C39.8557 14.2864 39.8568 14.2865 39.8574 14.2861V14.2852H39.8584C42.0674 13.0099 44.9853 12.3614 47.9229 12.3613Z" stroke="url(#paint5_linear_1680_24254)" stroke-width="0.723376"/>
</g>
<defs>
<filter id="filter0_i_1680_24254" x="42.2805" y="48.3472" width="31.4441" height="19.1831" filterUnits="userSpaceOnUse" color-interpolation-filters="sRGB">
<feFlood flood-opacity="0" result="BackgroundImageFix"/>
<feBlend mode="normal" in="SourceGraphic" in2="BackgroundImageFix" result="shape"/>
<feColorMatrix in="SourceAlpha" type="matrix" values="0 0 0 0 0 0 0 0 0 0 0 0 0 0 0 0 0 0 127 0" result="hardAlpha"/>
<feOffset dx="-0.723376" dy="-1.44675"/>
<feGaussianBlur stdDeviation="2.17013"/>
<feComposite in2="hardAlpha" operator="arithmetic" k2="-1" k3="1"/>
<feColorMatrix type="matrix" values="0 0 0 0 0.0352941 0 0 0 0 0.113725 0 0 0 0 0.478431 0 0 0 0.3 0"/>
<feBlend mode="normal" in2="shape" result="effect1_innerShadow_1680_24254"/>
</filter>
<filter id="filter1_i_1680_24254" x="4.55325" y="9.82987" width="70.1675" height="51.3889" filterUnits="userSpaceOnUse" color-interpolation-filters="sRGB">
<feFlood flood-opacity="0" result="BackgroundImageFix"/>
<feBlend mode="normal" in="SourceGraphic" in2="BackgroundImageFix" result="shape"/>
<feColorMatrix in="SourceAlpha" type="matrix" values="0 0 0 0 0 0 0 0 0 0 0 0 0 0 0 0 0 0 127 0" result="hardAlpha"/>
<feOffset dx="-1.44675" dy="-2.17013"/>
<feGaussianBlur stdDeviation="2.17013"/>
<feComposite in2="hardAlpha" operator="arithmetic" k2="-1" k3="1"/>
<feColorMatrix type="matrix" values="0 0 0 0 0.0352941 0 0 0 0 0.113725 0 0 0 0 0.478431 0 0 0 0.3 0"/>
<feBlend mode="normal" in2="shape" result="effect1_innerShadow_1680_24254"/>
</filter>
<filter id="filter2_i_1680_24254" x="42.2805" y="48.3472" width="31.4441" height="19.1831" filterUnits="userSpaceOnUse" color-interpolation-filters="sRGB">
<feFlood flood-opacity="0" result="BackgroundImageFix"/>
<feBlend mode="normal" in="SourceGraphic" in2="BackgroundImageFix" result="shape"/>
<feColorMatrix in="SourceAlpha" type="matrix" values="0 0 0 0 0 0 0 0 0 0 0 0 0 0 0 0 0 0 127 0" result="hardAlpha"/>
<feOffset dx="-0.723376" dy="-1.44675"/>
<feGaussianBlur stdDeviation="2.17013"/>
<feComposite in2="hardAlpha" operator="arithmetic" k2="-1" k3="1"/>
<feColorMatrix type="matrix" values="0 0 0 0 0.0352941 0 0 0 0 0.113725 0 0 0 0 0.478431 0 0 0 0.3 0"/>
<feBlend mode="normal" in2="shape" result="effect1_innerShadow_1680_24254"/>
</filter>
<filter id="filter3_i_1680_24254" x="4.55325" y="9.82987" width="70.1675" height="51.3889" filterUnits="userSpaceOnUse" color-interpolation-filters="sRGB">
<feFlood flood-opacity="0" result="BackgroundImageFix"/>
<feBlend mode="normal" in="SourceGraphic" in2="BackgroundImageFix" result="shape"/>
<feColorMatrix in="SourceAlpha" type="matrix" values="0 0 0 0 0 0 0 0 0 0 0 0 0 0 0 0 0 0 127 0" result="hardAlpha"/>
<feOffset dx="-1.44675" dy="-2.17013"/>
<feGaussianBlur stdDeviation="2.17013"/>
<feComposite in2="hardAlpha" operator="arithmetic" k2="-1" k3="1"/>
<feColorMatrix type="matrix" values="0 0 0 0 0.0371018 0 0 0 0 0.114061 0 0 0 0 0.479618 0 0 0 0.3 0"/>
<feBlend mode="normal" in2="shape" result="effect1_innerShadow_1680_24254"/>
</filter>
<linearGradient id="paint0_linear_1680_24254" x1="48.8443" y1="53.1661" x2="58.3638" y2="69.6543" gradientUnits="userSpaceOnUse">
<stop stop-color="#3049C0" stop-opacity="0.9"/>
<stop offset="1" stop-color="#3049C0" stop-opacity="0.7"/>
</linearGradient>
<linearGradient id="paint1_linear_1680_24254" x1="40.3605" y1="12" x2="40.3605" y2="61.2186" gradientUnits="userSpaceOnUse">
<stop stop-color="#3049C0" stop-opacity="0.9"/>
<stop offset="1" stop-color="#3049C0" stop-opacity="0.7"/>
</linearGradient>
<linearGradient id="paint2_linear_1680_24254" x1="48.8443" y1="53.1661" x2="58.3638" y2="69.6543" gradientUnits="userSpaceOnUse">
<stop stop-color="#3049C0" stop-opacity="0.9"/>
<stop offset="1" stop-color="#3049C0" stop-opacity="0.7"/>
</linearGradient>
<linearGradient id="paint3_linear_1680_24254" x1="50.848" y1="49.6159" x2="51.038" y2="59.3103" gradientUnits="userSpaceOnUse">
<stop stop-color="white"/>
<stop offset="1" stop-color="white" stop-opacity="0"/>
</linearGradient>
<linearGradient id="paint4_linear_1680_24254" x1="40.3605" y1="12" x2="40.3605" y2="61.2186" gradientUnits="userSpaceOnUse">
<stop stop-color="#3049C0" stop-opacity="0.9"/>
<stop offset="1" stop-color="#3049C0" stop-opacity="0.7"/>
</linearGradient>
<linearGradient id="paint5_linear_1680_24254" x1="29.8714" y1="6.213" x2="55.3704" y2="57.3918" gradientUnits="userSpaceOnUse">
<stop stop-color="white"/>
<stop offset="0.5" stop-color="white" stop-opacity="0"/>
</linearGradient>
</defs>
</svg>
